HIERARCHY
ROOT SpineBase
{
  OFFSET 0.000000 0.000000 0.000000
  CHANNELS 6 Xposition Yposition Zposition Zrotation Xrotation Yrotation
  JOINT SpineMid
  {
    OFFSET 0.000000 30.046198 0.000000
    CHANNELS 3 Zrotation Xrotation Yrotation
    JOINT SpineShoulder
    {
      OFFSET 0.017086 22.535462 -0.793434
      CHANNELS 3 Zrotation Xrotation Yrotation
      JOINT Neck
      {
        OFFSET 0.025162 7.525880 -0.579944
        CHANNELS 3 Zrotation Xrotation Yrotation
        JOINT Head
        {
          OFFSET -1.390606 11.218438 3.414990
          CHANNELS 3 Zrotation Xrotation Yrotation
          End Site
          {
            OFFSET 0 0 0
          }
        }
      }
      JOINT ShoulderLeft
      {
        OFFSET -13.658393 -6.715858 -3.397325
        CHANNELS 3 Zrotation Xrotation Yrotation
        JOINT ElbowLeft
        {
          OFFSET -4.508782 -26.355697 8.010732
          CHANNELS 3 Zrotation Xrotation Yrotation
          JOINT WristLeft
          {
            OFFSET 26.460023 10.555907 -9.008231
            CHANNELS 3 Zrotation Xrotation Yrotation
            JOINT HandLeft
            {
              OFFSET 13.722443 8.733799 -3.723741
              CHANNELS 3 Zrotation Xrotation Yrotation
              JOINT HandTipLeft
              {
                OFFSET -0.306022 7.375960 0.131932
                CHANNELS 3 Zrotation Xrotation Yrotation
                End Site
                {
                  OFFSET 0 0 0
                }
              }
              JOINT ThumbLeft
              {
                OFFSET -1.777756 3.661385 -4.117646
                CHANNELS 3 Zrotation Xrotation Yrotation
                End Site
                {
                  OFFSET 0 0 0
                }
              }
            }
          }
        }
      }
      JOINT ShoulderRight
      {
        OFFSET 13.561202 -6.491731 -7.675776
        CHANNELS 3 Zrotation Xrotation Yrotation
        JOINT ElbowRight
        {
          OFFSET 7.010321 -25.686686 2.709946
          CHANNELS 3 Zrotation Xrotation Yrotation
          JOINT WristRight
          {
            OFFSET 0.534321 -20.199673 5.141725
            CHANNELS 3 Zrotation Xrotation Yrotation
            JOINT HandRight
            {
              OFFSET -0.713616 -6.392661 3.087894
              CHANNELS 3 Zrotation Xrotation Yrotation
              JOINT HandTipRight
              {
                OFFSET -0.405325 -6.319764 0.478962
                CHANNELS 3 Zrotation Xrotation Yrotation
                End Site
                {
                  OFFSET 0 0 0
                }
              }
              JOINT ThumbRight
              {
                OFFSET 2.052860 0.386833 -1.739836
                CHANNELS 3 Zrotation Xrotation Yrotation
                End Site
                {
                  OFFSET 0 0 0
                }
              }
            }
          }
        }
      }
    }
  }
  JOINT HipLeft
  {
    OFFSET -4.857167 1.234854 -2.170481
    CHANNELS 3 Zrotation Xrotation Yrotation
    JOINT KneeLeft
    {
      OFFSET -5.737639 -30.416623 -2.157167
      CHANNELS 3 Zrotation Xrotation Yrotation
      JOINT AnkleLeft
      {
        OFFSET -1.955735 -27.312720 -1.308059
        CHANNELS 3 Zrotation Xrotation Yrotation
        JOINT FootLeft
        {
          OFFSET -0.914344 -3.176742 -9.696519
          CHANNELS 3 Zrotation Xrotation Yrotation
          End Site
          {
            OFFSET 0 0 0
          }
        }
      }
    }
  }
  JOINT HipRight
  {
    OFFSET 5.585239 1.942856 -4.040113
    CHANNELS 3 Zrotation Xrotation Yrotation
    JOINT KneeRight
    {
      OFFSET 3.334487 -30.390853 -3.742357
      CHANNELS 3 Zrotation Xrotation Yrotation
      JOINT AnkleRight
      {
        OFFSET -1.340284 -28.672032 -3.151935
        CHANNELS 3 Zrotation Xrotation Yrotation
        JOINT FootRight
        {
          OFFSET -0.862236 -2.723673 -10.163395
          CHANNELS 3 Zrotation Xrotation Yrotation
          End Site
          {
            OFFSET 0 0 0
          }
        }
      }
    }
  }
}
MOTION
Frames: 12
Frame Time: 0.033333
-29.987331 65.470957 261.370684 -0.000000 0.000000 10.150815 0.000000 0.000000 -10.150815 -0.000000 0.000000 0.000000 -0.000000 0.000000 0.000000 0.000000 0.000000 0.000000 -0.000000 0.000000 0.000000 -0.000000 0.000000 0.000000 -0.000000 0.000000 0.000000 -0.000000 0.000000 0.000000 0.000000 0.000000 0.000000 0.000000 0.000000 0.000000 -0.000000 0.000000 0.000000 -0.000000 0.000000 0.000000 -0.000000 0.000000 0.000000 -0.000000 0.000000 0.000000 0.000000 0.000000 0.000000 0.000000 0.000000 0.000000 0.000000 0.000000 -10.150815 -0.000000 0.000000 0.000000 -0.000000 0.000000 0.000000 0.000000 0.000000 0.000000 0.000000 0.000000 -10.150815 -0.000000 0.000000 0.000000 -0.000000 0.000000 0.000000 0.000000 0.000000 0.000000
-29.996011 65.468234 261.366737 -0.004520 -0.060311 9.849626 0.014771 0.058649 -9.849636 -0.000000 0.000000 0.000000 -0.000000 0.000000 0.000000 0.000000 0.000000 0.000000 -0.000000 0.000000 0.000000 -0.000000 0.000000 0.000000 -0.000000 0.000000 0.000000 -0.779922 1.348074 0.079065 0.000000 0.000000 0.000000 0.000000 0.000000 0.000000 -0.000000 0.000000 0.000000 -0.000000 0.000000 0.000000 -4.260812 -4.029566 -1.722478 6.138351 6.071490 1.278211 0.000000 0.000000 0.000000 0.000000 0.000000 0.000000 0.014771 0.058649 -9.849636 -0.000000 0.000000 0.000000 1.517783 -15.273079 -0.012570 0.000000 0.000000 0.000000 0.014771 0.058649 -9.849636 -0.000000 0.000000 0.000000 -0.687534 4.827998 0.918920 0.000000 0.000000 0.000000
-30.006637 65.467405 261.359293 -0.017151 -0.117525 9.572482 0.036457 0.113037 -9.572536 -0.000000 0.000000 0.000000 -0.111855 -1.144855 -0.109331 0.000000 0.000000 0.000000 -0.000000 0.000000 0.000000 -0.000000 0.000000 0.000000 0.182453 0.523291 -0.748556 -1.727227 1.942120 0.896539 0.000000 0.000000 0.000000 0.000000 0.000000 0.000000 -0.000000 0.000000 0.000000 -0.000000 0.000000 0.000000 -8.330787 -7.685407 -3.585815 11.691024 11.761751 1.878389 0.000000 0.000000 0.000000 0.000000 0.000000 0.000000 0.036457 0.113037 -9.572536 -0.000000 0.000000 0.000000 3.755124 -34.735876 0.685147 0.000000 0.000000 0.000000 0.036457 0.113037 -9.572536 -0.000000 0.000000 0.000000 -1.064933 7.318387 1.386937 0.000000 0.000000 0.000000
-30.019209 65.468472 261.348353 -0.037897 -0.171636 9.319748 0.065192 0.163233 -9.319897 -0.000000 0.000000 0.000000 -0.088695 -1.614151 -0.175116 0.000000 0.000000 0.000000 -0.000000 0.000000 0.000000 -0.000000 0.000000 0.000000 0.261678 0.759057 -1.089758 -2.499411 2.548514 1.299912 0.000000 0.000000 0.000000 0.000000 0.000000 0.000000 -0.000000 0.000000 0.000000 -0.000000 0.000000 0.000000 -12.014009 -10.827475 -5.437910 16.614027 16.801094 1.911056 0.000000 0.000000 0.000000 0.000000 0.000000 0.000000 0.065192 0.163233 -9.319897 -0.000000 0.000000 0.000000 7.249472 -53.956130 2.923894 0.000000 0.000000 0.000000 0.065192 0.163233 -9.319897 -0.000000 0.000000 0.000000 -1.205756 8.313676 1.530346 0.000000 0.000000 0.000000
-30.033727 65.471434 261.333915 -0.066757 -0.222635 9.091732 0.101099 0.209289 -9.092046 -0.000000 0.000000 0.000000 -0.012816 -2.015115 -0.247466 0.000000 0.000000 0.000000 -0.000000 0.000000 0.000000 -0.000000 0.000000 0.000000 0.332519 0.977734 -1.408784 -3.161950 2.836214 1.660370 0.000000 0.000000 0.000000 0.000000 0.000000 0.000000 -0.000000 0.000000 0.000000 -0.000000 0.000000 0.000000 -15.139863 -13.388934 -7.122637 20.853116 20.992005 1.527429 0.000000 0.000000 0.000000 0.000000 0.000000 0.000000 0.101099 0.209289 -9.092046 -0.000000 0.000000 0.000000 13.081803 -68.372257 7.921039 0.000000 0.000000 0.000000 0.101099 0.209289 -9.092046 -0.000000 0.000000 0.000000 -1.138914 8.101949 1.389799 0.000000 0.000000 0.000000
-30.050191 65.476292 261.315980 -0.103734 -0.270516 8.888693 0.144288 0.251238 -8.889254 -0.000000 0.000000 0.000000 0.115860 -2.348060 -0.325986 0.000000 0.000000 0.000000 -0.000000 0.000000 0.000000 -0.000000 0.000000 0.000000 0.394715 1.179449 -1.705564 -3.680660 2.763862 1.969019 0.000000 0.000000 0.000000 0.000000 0.000000 0.000000 -0.000000 0.000000 0.000000 -0.000000 0.000000 0.000000 -17.581261 -15.364173 -8.506446 24.340893 24.206972 0.902227 0.000000 0.000000 0.000000 0.000000 0.000000 0.000000 0.144288 0.251238 -8.889254 -0.000000 0.000000 0.000000 22.902967 -77.187947 17.268288 0.000000 0.000000 0.000000 0.144288 0.251238 -8.889254 -0.000000 0.000000 0.000000 -0.857587 6.624449 0.944171 0.000000 0.000000 0.000000
-30.073673 65.483166 261.291216 -0.164469 -0.327658 8.674807 0.212010 0.299102 -8.675831 -0.657084 -0.740284 -0.052378 1.079269 -1.753542 -0.392500 0.000000 0.000000 0.000000 0.656462 0.740836 0.043889 -0.000000 0.000000 0.000000 0.490502 1.394866 -2.012318 -4.047514 2.013793 2.229708 0.000000 0.000000 0.000000 0.000000 0.000000 0.000000 0.409221 -0.036984 -0.192940 0.244623 0.778647 0.236686 -19.318735 -17.800207 -9.544618 26.628599 27.815479 -0.184215 0.000000 0.000000 0.000000 0.000000 0.000000 0.000000 0.212010 0.299102 -8.675831 -0.263679 -0.800477 0.068117 19.021676 -75.168665 12.784466 0.000000 0.000000 0.000000 0.212010 0.299102 -8.675831 -0.000000 0.000000 0.000000 0.116453 0.549866 -0.598643 0.000000 0.000000 0.000000
-30.096835 65.490418 261.262519 -0.224253 -0.369759 8.493977 -0.349752 -0.205990 -8.513337 -0.292432 -0.213746 -0.042724 1.533475 -1.861982 -0.490043 0.000000 0.000000 0.000000 0.831403 0.839662 0.055202 -0.000000 0.000000 0.000000 0.524111 1.547322 -2.243656 -4.281345 1.774276 2.448023 0.000000 0.000000 0.000000 0.000000 0.000000 0.000000 0.565243 -0.133038 -0.236662 0.262150 0.973790 0.291277 -19.730329 -18.370975 -9.797886 26.463316 28.890017 -0.251253 0.000000 0.000000 0.000000 0.000000 0.000000 0.000000 0.276413 0.332577 -8.495503 -0.000000 0.000000 0.000000 10.882727 -65.353365 5.235126 0.000000 0.000000 0.000000 0.276413 0.332577 -8.495503 -0.000000 0.000000 0.000000 0.958793 -5.816021 -2.087358 0.000000 0.000000 0.000000
-30.120160 65.501610 261.233355 -0.281960 -0.403671 8.390646 -0.405243 -0.237219 -8.414201 -0.326227 -0.208268 -0.049522 1.924443 -1.973046 -0.576832 0.000000 0.000000 0.000000 0.973495 0.906808 0.064324 -0.000000 0.000000 0.000000 0.522488 1.712906 -2.510125 -3.823516 0.098648 2.588424 0.000000 0.000000 0.000000 0.000000 0.000000 0.000000 0.692536 -0.299871 -0.293063 0.274809 1.208096 0.355979 -20.004536 -17.580968 -9.943562 26.132040 28.392275 0.343004 0.000000 0.000000 0.000000 0.000000 0.000000 0.000000 0.337852 0.358200 -8.392695 -0.255891 -0.767310 0.065496 22.904279 -77.024685 17.116908 0.000000 0.000000 0.000000 0.337852 0.358200 -8.392695 -0.000000 0.000000 0.000000 1.555060 -11.288563 -3.291621 0.000000 0.000000 0.000000
-30.134984 65.512496 261.210228 -0.325998 -0.420747 8.325141 -0.435111 -0.249094 -8.351523 -0.338985 -0.187640 -0.053297 2.179543 -2.134148 -0.641985 0.000000 0.000000 0.000000 1.058349 0.919110 0.070042 -0.000000 0.000000 0.000000 0.391550 1.885424 -2.836683 -4.378651 -1.135846 2.829413 0.000000 0.000000 0.000000 0.000000 0.000000 0.000000 0.752815 -0.587724 -0.372375 0.295798 1.508780 0.439405 -19.689918 -17.007296 -9.747790 27.358291 25.730699 0.341002 0.000000 0.000000 0.000000 0.000000 0.000000 0.000000 0.383490 0.369104 -8.327574 -0.000000 0.000000 0.000000 31.830482 -79.883249 26.823216 0.000000 0.000000 0.000000 0.383490 0.369104 -8.327574 -0.000000 0.000000 0.000000 1.852209 -14.480007 -3.969520 0.000000 0.000000 0.000000
-30.141625 65.518911 261.191898 -0.353502 -0.430117 8.276615 -0.440388 -0.240508 -8.304301 -0.331618 -0.153681 -0.054037 2.264729 -2.377076 -0.680674 0.000000 0.000000 0.000000 1.085201 0.886523 0.072313 -0.000000 0.000000 0.000000 0.306456 2.039821 -3.116063 -4.106697 -2.129564 3.039764 0.000000 0.000000 0.000000 0.000000 0.000000 0.000000 0.742745 -0.907274 -0.453160 0.272662 2.656061 0.533018 -19.086925 -16.725015 -9.660351 27.450764 20.073844 1.205376 0.000000 0.000000 0.000000 0.000000 0.000000 0.000000 0.411745 0.374740 -8.279289 -0.000000 0.000000 0.000000 23.498872 -76.340611 19.069441 0.000000 0.000000 0.000000 0.411745 0.374740 -8.279289 -0.000000 0.000000 0.000000 1.855108 -14.479451 -3.989840 0.000000 0.000000 0.000000
-30.142499 65.519660 261.180427 -0.363939 -0.421623 8.238152 -0.411196 -0.211510 -8.265263 -0.302358 -0.111931 -0.051302 2.145374 -2.643164 -0.680090 0.000000 0.000000 0.000000 1.041967 0.803036 0.070349 -0.000000 0.000000 0.000000 0.217485 2.147087 -3.320735 -2.905202 -0.808703 3.353547 0.000000 0.000000 0.000000 0.000000 0.000000 0.000000 0.678882 -1.278186 -0.537038 0.234987 3.090861 0.606225 -18.716574 -15.933974 -9.494230 27.799070 18.068793 1.590091 0.000000 0.000000 0.000000 0.000000 0.000000 0.000000 0.420606 0.365114 -8.240831 -0.000000 0.000000 0.000000 13.892036 -67.880773 10.090614 0.000000 0.000000 0.000000 0.420606 0.365114 -8.240831 -0.000000 0.000000 0.000000 1.562742 -11.283460 -3.338039 0.000000 0.000000 0.000000
